<?xml version="1.0" encoding="utf-8" standalone="no"?>
<!DOCTYPE svg PUBLIC "-//W3C//DTD SVG 1.1//EN"
  "http://www.w3.org/Graphics/SVG/1.1/DTD/svg11.dtd">
<svg xmlns:xlink="http://www.w3.org/1999/xlink" width="648pt" height="504pt" viewBox="0 0 648 504" xmlns="http://www.w3.org/2000/svg" version="1.1">
 <metadata>
  <rdf:RDF xmlns:dc="http://purl.org/dc/elements/1.1/" xmlns:cc="http://creativecommons.org/ns#" xmlns:rdf="http://www.w3.org/1999/02/22-rdf-syntax-ns#">
   <cc:Work>
    <dc:type rdf:resource="http://purl.org/dc/dcmitype/StillImage"/>
    <dc:date>2024-09-05T16:43:58.358785</dc:date>
    <dc:format>image/svg+xml</dc:format>
    <dc:creator>
     <cc:Agent>
      <dc:title>Matplotlib v3.6.2, https://matplotlib.org/</dc:title>
     </cc:Agent>
    </dc:creator>
   </cc:Work>
  </rdf:RDF>
 </metadata>
 <defs>
  <style type="text/css">*{stroke-linejoin: round; stroke-linecap: butt}</style>
 </defs>
 <g id="figure_1">
  <g id="patch_1">
   <path d="M 0 504 
L 648 504 
L 648 0 
L 0 0 
z
" style="fill: #ffffff"/>
  </g>
  <g id="axes_1">
   <g id="patch_2">
    <path d="M 42.01 147.32 
L 637.2 147.32 
L 637.2 26.88 
L 42.01 26.88 
z
" style="fill: #ffffff"/>
   </g>
   <g id="matplotlib.axis_1">
    <g id="xtick_1">
     <g id="line2d_1">
      <defs>
       <path id="md8a3aae5c9" d="M 0 0 
L 0 3.5 
" style="stroke: #000000; stroke-width: 0.8"/>
      </defs>
      <g>
       <use xlink:href="#md8a3aae5c9" x="42.01" y="147.32" style="stroke: #000000; stroke-width: 0.8"/>
      </g>
     </g>
     <g id="text_1">
      <!-- 0 -->
      <g transform="translate(38.82875 161.918437) scale(0.1 -0.1)">
       <defs>
        <path id="DejaVuSans-30" d="M 2034 4250 
Q 1547 4250 1301 3770 
Q 1056 3291 1056 2328 
Q 1056 1369 1301 889 
Q 1547 409 2034 409 
Q 2525 409 2770 889 
Q 3016 1369 3016 2328 
Q 3016 3291 2770 3770 
Q 2525 4250 2034 4250 
z
M 2034 4750 
Q 2819 4750 3233 4129 
Q 3647 3509 3647 2328 
Q 3647 1150 3233 529 
Q 2819 -91 2034 -91 
Q 1250 -91 836 529 
Q 422 1150 422 2328 
Q 422 3509 836 4129 
Q 1250 4750 2034 4750 
z
" transform="scale(0.015625)"/>
       </defs>
       <use xlink:href="#DejaVuSans-30"/>
      </g>
     </g>
    </g>
    <g id="xtick_2">
     <g id="line2d_2">
      <g>
       <use xlink:href="#md8a3aae5c9" x="116.782613" y="147.32" style="stroke: #000000; stroke-width: 0.8"/>
      </g>
     </g>
     <g id="text_2">
      <!-- 25 -->
      <g transform="translate(110.420113 161.918437) scale(0.1 -0.1)">
       <defs>
        <path id="DejaVuSans-32" d="M 1228 531 
L 3431 531 
L 3431 0 
L 469 0 
L 469 531 
Q 828 903 1448 1529 
Q 2069 2156 2228 2338 
Q 2531 2678 2651 2914 
Q 2772 3150 2772 3378 
Q 2772 3750 2511 3984 
Q 2250 4219 1831 4219 
Q 1534 4219 1204 4116 
Q 875 4013 500 3803 
L 500 4441 
Q 881 4594 1212 4672 
Q 1544 4750 1819 4750 
Q 2544 4750 2975 4387 
Q 3406 4025 3406 3419 
Q 3406 3131 3298 2873 
Q 3191 2616 2906 2266 
Q 2828 2175 2409 1742 
Q 1991 1309 1228 531 
z
" transform="scale(0.015625)"/>
        <path id="DejaVuSans-35" d="M 691 4666 
L 3169 4666 
L 3169 4134 
L 1269 4134 
L 1269 2991 
Q 1406 3038 1543 3061 
Q 1681 3084 1819 3084 
Q 2600 3084 3056 2656 
Q 3513 2228 3513 1497 
Q 3513 744 3044 326 
Q 2575 -91 1722 -91 
Q 1428 -91 1123 -41 
Q 819 9 494 109 
L 494 744 
Q 775 591 1075 516 
Q 1375 441 1709 441 
Q 2250 441 2565 725 
Q 2881 1009 2881 1497 
Q 2881 1984 2565 2268 
Q 2250 2553 1709 2553 
Q 1456 2553 1204 2497 
Q 953 2441 691 2322 
L 691 4666 
z
" transform="scale(0.015625)"/>
       </defs>
       <use xlink:href="#DejaVuSans-32"/>
       <use xlink:href="#DejaVuSans-35" x="63.623047"/>
      </g>
     </g>
    </g>
    <g id="xtick_3">
     <g id="line2d_3">
      <g>
       <use xlink:href="#md8a3aae5c9" x="191.555226" y="147.32" style="stroke: #000000; stroke-width: 0.8"/>
      </g>
     </g>
     <g id="text_3">
      <!-- 50 -->
      <g transform="translate(185.192726 161.918437) scale(0.1 -0.1)">
       <use xlink:href="#DejaVuSans-35"/>
       <use xlink:href="#DejaVuSans-30" x="63.623047"/>
      </g>
     </g>
    </g>
    <g id="xtick_4">
     <g id="line2d_4">
      <g>
       <use xlink:href="#md8a3aae5c9" x="266.327839" y="147.32" style="stroke: #000000; stroke-width: 0.8"/>
      </g>
     </g>
     <g id="text_4">
      <!-- 75 -->
      <g transform="translate(259.965339 161.918437) scale(0.1 -0.1)">
       <defs>
        <path id="DejaVuSans-37" d="M 525 4666 
L 3525 4666 
L 3525 4397 
L 1831 0 
L 1172 0 
L 2766 4134 
L 525 4134 
L 525 4666 
z
" transform="scale(0.015625)"/>
       </defs>
       <use xlink:href="#DejaVuSans-37"/>
       <use xlink:href="#DejaVuSans-35" x="63.623047"/>
      </g>
     </g>
    </g>
    <g id="xtick_5">
     <g id="line2d_5">
      <g>
       <use xlink:href="#md8a3aae5c9" x="341.100452" y="147.32" style="stroke: #000000; stroke-width: 0.8"/>
      </g>
     </g>
     <g id="text_5">
      <!-- 100 -->
      <g transform="translate(331.556702 161.918437) scale(0.1 -0.1)">
       <defs>
        <path id="DejaVuSans-31" d="M 794 531 
L 1825 531 
L 1825 4091 
L 703 3866 
L 703 4441 
L 1819 4666 
L 2450 4666 
L 2450 531 
L 3481 531 
L 3481 0 
L 794 0 
L 794 531 
z
" transform="scale(0.015625)"/>
       </defs>
       <use xlink:href="#DejaVuSans-31"/>
       <use xlink:href="#DejaVuSans-30" x="63.623047"/>
       <use xlink:href="#DejaVuSans-30" x="127.246094"/>
      </g>
     </g>
    </g>
    <g id="xtick_6">
     <g id="line2d_6">
      <g>
       <use xlink:href="#md8a3aae5c9" x="415.873065" y="147.32" style="stroke: #000000; stroke-width: 0.8"/>
      </g>
     </g>
     <g id="text_6">
      <!-- 125 -->
      <g transform="translate(406.329315 161.918437) scale(0.1 -0.1)">
       <use xlink:href="#DejaVuSans-31"/>
       <use xlink:href="#DejaVuSans-32" x="63.623047"/>
       <use xlink:href="#DejaVuSans-35" x="127.246094"/>
      </g>
     </g>
    </g>
    <g id="xtick_7">
     <g id="line2d_7">
      <g>
       <use xlink:href="#md8a3aae5c9" x="490.645678" y="147.32" style="stroke: #000000; stroke-width: 0.8"/>
      </g>
     </g>
     <g id="text_7">
      <!-- 150 -->
      <g transform="translate(481.101928 161.918437) scale(0.1 -0.1)">
       <use xlink:href="#DejaVuSans-31"/>
       <use xlink:href="#DejaVuSans-35" x="63.623047"/>
       <use xlink:href="#DejaVuSans-30" x="127.246094"/>
      </g>
     </g>
    </g>
    <g id="xtick_8">
     <g id="line2d_8">
      <g>
       <use xlink:href="#md8a3aae5c9" x="565.418291" y="147.32" style="stroke: #000000; stroke-width: 0.8"/>
      </g>
     </g>
     <g id="text_8">
      <!-- 175 -->
      <g transform="translate(555.874541 161.918437) scale(0.1 -0.1)">
       <use xlink:href="#DejaVuSans-31"/>
       <use xlink:href="#DejaVuSans-37" x="63.623047"/>
       <use xlink:href="#DejaVuSans-35" x="127.246094"/>
      </g>
     </g>
    </g>
   </g>
   <g id="matplotlib.axis_2">
    <g id="ytick_1">
     <g id="line2d_9">
      <defs>
       <path id="mbc15a63780" d="M 0 0 
L -3.5 0 
" style="stroke: #000000; stroke-width: 0.8"/>
      </defs>
      <g>
       <use xlink:href="#mbc15a63780" x="42.01" y="141.845455" style="stroke: #000000; stroke-width: 0.8"/>
      </g>
     </g>
     <g id="text_9">
      <!-- −1.0 -->
      <g transform="translate(10.727187 145.644673) scale(0.1 -0.1)">
       <defs>
        <path id="DejaVuSans-2212" d="M 678 2272 
L 4684 2272 
L 4684 1741 
L 678 1741 
L 678 2272 
z
" transform="scale(0.015625)"/>
        <path id="DejaVuSans-2e" d="M 684 794 
L 1344 794 
L 1344 0 
L 684 0 
L 684 794 
z
" transform="scale(0.015625)"/>
       </defs>
       <use xlink:href="#DejaVuSans-2212"/>
       <use xlink:href="#DejaVuSans-31" x="83.789062"/>
       <use xlink:href="#DejaVuSans-2e" x="147.412109"/>
       <use xlink:href="#DejaVuSans-30" x="179.199219"/>
      </g>
     </g>
    </g>
    <g id="ytick_2">
     <g id="line2d_10">
      <g>
       <use xlink:href="#mbc15a63780" x="42.01" y="114.472727" style="stroke: #000000; stroke-width: 0.8"/>
      </g>
     </g>
     <g id="text_10">
      <!-- −0.5 -->
      <g transform="translate(10.727187 118.271946) scale(0.1 -0.1)">
       <use xlink:href="#DejaVuSans-2212"/>
       <use xlink:href="#DejaVuSans-30" x="83.789062"/>
       <use xlink:href="#DejaVuSans-2e" x="147.412109"/>
       <use xlink:href="#DejaVuSans-35" x="179.199219"/>
      </g>
     </g>
    </g>
    <g id="ytick_3">
     <g id="line2d_11">
      <g>
       <use xlink:href="#mbc15a63780" x="42.01" y="87.1" style="stroke: #000000; stroke-width: 0.8"/>
      </g>
     </g>
     <g id="text_11">
      <!-- 0.0 -->
      <g transform="translate(19.106875 90.899219) scale(0.1 -0.1)">
       <use xlink:href="#DejaVuSans-30"/>
       <use xlink:href="#DejaVuSans-2e" x="63.623047"/>
       <use xlink:href="#DejaVuSans-30" x="95.410156"/>
      </g>
     </g>
    </g>
    <g id="ytick_4">
     <g id="line2d_12">
      <g>
       <use xlink:href="#mbc15a63780" x="42.01" y="59.727273" style="stroke: #000000; stroke-width: 0.8"/>
      </g>
     </g>
     <g id="text_12">
      <!-- 0.5 -->
      <g transform="translate(19.106875 63.526491) scale(0.1 -0.1)">
       <use xlink:href="#DejaVuSans-30"/>
       <use xlink:href="#DejaVuSans-2e" x="63.623047"/>
       <use xlink:href="#DejaVuSans-35" x="95.410156"/>
      </g>
     </g>
    </g>
    <g id="ytick_5">
     <g id="line2d_13">
      <g>
       <use xlink:href="#mbc15a63780" x="42.01" y="32.354545" style="stroke: #000000; stroke-width: 0.8"/>
      </g>
     </g>
     <g id="text_13">
      <!-- 1.0 -->
      <g transform="translate(19.106875 36.153764) scale(0.1 -0.1)">
       <use xlink:href="#DejaVuSans-31"/>
       <use xlink:href="#DejaVuSans-2e" x="63.623047"/>
       <use xlink:href="#DejaVuSans-30" x="95.410156"/>
      </g>
     </g>
    </g>
   </g>
   <g id="line2d_14">
    <path d="M 42.01 141.845455 
L 188.564322 32.354545 
L 191.555226 141.845455 
L 338.109548 32.354545 
L 341.100452 141.845455 
L 487.654774 32.354545 
L 490.645678 141.845455 
L 637.2 32.354545 
L 637.2 32.354545 
" clip-path="url(#p518249ee3b)" style="fill: none; stroke: #1f77b4; stroke-width: 1.5; stroke-linecap: square"/>
   </g>
   <g id="patch_3">
    <path d="M 42.01 147.32 
L 42.01 26.88 
" style="fill: none; stroke: #000000; stroke-width: 0.8; stroke-linejoin: miter; stroke-linecap: square"/>
   </g>
   <g id="patch_4">
    <path d="M 637.2 147.32 
L 637.2 26.88 
" style="fill: none; stroke: #000000; stroke-width: 0.8; stroke-linejoin: miter; stroke-linecap: square"/>
   </g>
   <g id="patch_5">
    <path d="M 42.01 147.32 
L 637.2 147.32 
" style="fill: none; stroke: #000000; stroke-width: 0.8; stroke-linejoin: miter; stroke-linecap: square"/>
   </g>
   <g id="patch_6">
    <path d="M 42.01 26.88 
L 637.2 26.88 
" style="fill: none; stroke: #000000; stroke-width: 0.8; stroke-linejoin: miter; stroke-linecap: square"/>
   </g>
   <g id="text_14">
    <!-- Input Array (Sawtooth Signal) -->
    <g transform="translate(250.832187 20.88) scale(0.12 -0.12)">
     <defs>
      <path id="DejaVuSans-49" d="M 628 4666 
L 1259 4666 
L 1259 0 
L 628 0 
L 628 4666 
z
" transform="scale(0.015625)"/>
      <path id="DejaVuSans-6e" d="M 3513 2113 
L 3513 0 
L 2938 0 
L 2938 2094 
Q 2938 2591 2744 2837 
Q 2550 3084 2163 3084 
Q 1697 3084 1428 2787 
Q 1159 2491 1159 1978 
L 1159 0 
L 581 0 
L 581 3500 
L 1159 3500 
L 1159 2956 
Q 1366 3272 1645 3428 
Q 1925 3584 2291 3584 
Q 2894 3584 3203 3211 
Q 3513 2838 3513 2113 
z
" transform="scale(0.015625)"/>
      <path id="DejaVuSans-70" d="M 1159 525 
L 1159 -1331 
L 581 -1331 
L 581 3500 
L 1159 3500 
L 1159 2969 
Q 1341 3281 1617 3432 
Q 1894 3584 2278 3584 
Q 2916 3584 3314 3078 
Q 3713 2572 3713 1747 
Q 3713 922 3314 415 
Q 2916 -91 2278 -91 
Q 1894 -91 1617 61 
Q 1341 213 1159 525 
z
M 3116 1747 
Q 3116 2381 2855 2742 
Q 2594 3103 2138 3103 
Q 1681 3103 1420 2742 
Q 1159 2381 1159 1747 
Q 1159 1113 1420 752 
Q 1681 391 2138 391 
Q 2594 391 2855 752 
Q 3116 1113 3116 1747 
z
" transform="scale(0.015625)"/>
      <path id="DejaVuSans-75" d="M 544 1381 
L 544 3500 
L 1119 3500 
L 1119 1403 
Q 1119 906 1312 657 
Q 1506 409 1894 409 
Q 2359 409 2629 706 
Q 2900 1003 2900 1516 
L 2900 3500 
L 3475 3500 
L 3475 0 
L 2900 0 
L 2900 538 
Q 2691 219 2414 64 
Q 2138 -91 1772 -91 
Q 1169 -91 856 284 
Q 544 659 544 1381 
z
M 1991 3584 
L 1991 3584 
z
" transform="scale(0.015625)"/>
      <path id="DejaVuSans-74" d="M 1172 4494 
L 1172 3500 
L 2356 3500 
L 2356 3053 
L 1172 3053 
L 1172 1153 
Q 1172 725 1289 603 
Q 1406 481 1766 481 
L 2356 481 
L 2356 0 
L 1766 0 
Q 1100 0 847 248 
Q 594 497 594 1153 
L 594 3053 
L 172 3053 
L 172 3500 
L 594 3500 
L 594 4494 
L 1172 4494 
z
" transform="scale(0.015625)"/>
      <path id="DejaVuSans-20" transform="scale(0.015625)"/>
      <path id="DejaVuSans-41" d="M 2188 4044 
L 1331 1722 
L 3047 1722 
L 2188 4044 
z
M 1831 4666 
L 2547 4666 
L 4325 0 
L 3669 0 
L 3244 1197 
L 1141 1197 
L 716 0 
L 50 0 
L 1831 4666 
z
" transform="scale(0.015625)"/>
      <path id="DejaVuSans-72" d="M 2631 2963 
Q 2534 3019 2420 3045 
Q 2306 3072 2169 3072 
Q 1681 3072 1420 2755 
Q 1159 2438 1159 1844 
L 1159 0 
L 581 0 
L 581 3500 
L 1159 3500 
L 1159 2956 
Q 1341 3275 1631 3429 
Q 1922 3584 2338 3584 
Q 2397 3584 2469 3576 
Q 2541 3569 2628 3553 
L 2631 2963 
z
" transform="scale(0.015625)"/>
      <path id="DejaVuSans-61" d="M 2194 1759 
Q 1497 1759 1228 1600 
Q 959 1441 959 1056 
Q 959 750 1161 570 
Q 1363 391 1709 391 
Q 2188 391 2477 730 
Q 2766 1069 2766 1631 
L 2766 1759 
L 2194 1759 
z
M 3341 1997 
L 3341 0 
L 2766 0 
L 2766 531 
Q 2569 213 2275 61 
Q 1981 -91 1556 -91 
Q 1019 -91 701 211 
Q 384 513 384 1019 
Q 384 1609 779 1909 
Q 1175 2209 1959 2209 
L 2766 2209 
L 2766 2266 
Q 2766 2663 2505 2880 
Q 2244 3097 1772 3097 
Q 1472 3097 1187 3025 
Q 903 2953 641 2809 
L 641 3341 
Q 956 3463 1253 3523 
Q 1550 3584 1831 3584 
Q 2591 3584 2966 3190 
Q 3341 2797 3341 1997 
z
" transform="scale(0.015625)"/>
      <path id="DejaVuSans-79" d="M 2059 -325 
Q 1816 -950 1584 -1140 
Q 1353 -1331 966 -1331 
L 506 -1331 
L 506 -850 
L 844 -850 
Q 1081 -850 1212 -737 
Q 1344 -625 1503 -206 
L 1606 56 
L 191 3500 
L 800 3500 
L 1894 763 
L 2988 3500 
L 3597 3500 
L 2059 -325 
z
" transform="scale(0.015625)"/>
      <path id="DejaVuSans-28" d="M 1984 4856 
Q 1566 4138 1362 3434 
Q 1159 2731 1159 2009 
Q 1159 1288 1364 580 
Q 1569 -128 1984 -844 
L 1484 -844 
Q 1016 -109 783 600 
Q 550 1309 550 2009 
Q 550 2706 781 3412 
Q 1013 4119 1484 4856 
L 1984 4856 
z
" transform="scale(0.015625)"/>
      <path id="DejaVuSans-53" d="M 3425 4513 
L 3425 3897 
Q 3066 4069 2747 4153 
Q 2428 4238 2131 4238 
Q 1616 4238 1336 4038 
Q 1056 3838 1056 3469 
Q 1056 3159 1242 3001 
Q 1428 2844 1947 2747 
L 2328 2669 
Q 3034 2534 3370 2195 
Q 3706 1856 3706 1288 
Q 3706 609 3251 259 
Q 2797 -91 1919 -91 
Q 1588 -91 1214 -16 
Q 841 59 441 206 
L 441 856 
Q 825 641 1194 531 
Q 1563 422 1919 422 
Q 2459 422 2753 634 
Q 3047 847 3047 1241 
Q 3047 1584 2836 1778 
Q 2625 1972 2144 2069 
L 1759 2144 
Q 1053 2284 737 2584 
Q 422 2884 422 3419 
Q 422 4038 858 4394 
Q 1294 4750 2059 4750 
Q 2388 4750 2728 4690 
Q 3069 4631 3425 4513 
z
" transform="scale(0.015625)"/>
      <path id="DejaVuSans-77" d="M 269 3500 
L 844 3500 
L 1563 769 
L 2278 3500 
L 2956 3500 
L 3675 769 
L 4391 3500 
L 4966 3500 
L 4050 0 
L 3372 0 
L 2619 2869 
L 1863 0 
L 1184 0 
L 269 3500 
z
" transform="scale(0.015625)"/>
      <path id="DejaVuSans-6f" d="M 1959 3097 
Q 1497 3097 1228 2736 
Q 959 2375 959 1747 
Q 959 1119 1226 758 
Q 1494 397 1959 397 
Q 2419 397 2687 759 
Q 2956 1122 2956 1747 
Q 2956 2369 2687 2733 
Q 2419 3097 1959 3097 
z
M 1959 3584 
Q 2709 3584 3137 3096 
Q 3566 2609 3566 1747 
Q 3566 888 3137 398 
Q 2709 -91 1959 -91 
Q 1206 -91 779 398 
Q 353 888 353 1747 
Q 353 2609 779 3096 
Q 1206 3584 1959 3584 
z
" transform="scale(0.015625)"/>
      <path id="DejaVuSans-68" d="M 3513 2113 
L 3513 0 
L 2938 0 
L 2938 2094 
Q 2938 2591 2744 2837 
Q 2550 3084 2163 3084 
Q 1697 3084 1428 2787 
Q 1159 2491 1159 1978 
L 1159 0 
L 581 0 
L 581 4863 
L 1159 4863 
L 1159 2956 
Q 1366 3272 1645 3428 
Q 1925 3584 2291 3584 
Q 2894 3584 3203 3211 
Q 3513 2838 3513 2113 
z
" transform="scale(0.015625)"/>
      <path id="DejaVuSans-69" d="M 603 3500 
L 1178 3500 
L 1178 0 
L 603 0 
L 603 3500 
z
M 603 4863 
L 1178 4863 
L 1178 4134 
L 603 4134 
L 603 4863 
z
" transform="scale(0.015625)"/>
      <path id="DejaVuSans-67" d="M 2906 1791 
Q 2906 2416 2648 2759 
Q 2391 3103 1925 3103 
Q 1463 3103 1205 2759 
Q 947 2416 947 1791 
Q 947 1169 1205 825 
Q 1463 481 1925 481 
Q 2391 481 2648 825 
Q 2906 1169 2906 1791 
z
M 3481 434 
Q 3481 -459 3084 -895 
Q 2688 -1331 1869 -1331 
Q 1566 -1331 1297 -1286 
Q 1028 -1241 775 -1147 
L 775 -588 
Q 1028 -725 1275 -790 
Q 1522 -856 1778 -856 
Q 2344 -856 2625 -561 
Q 2906 -266 2906 331 
L 2906 616 
Q 2728 306 2450 153 
Q 2172 0 1784 0 
Q 1141 0 747 490 
Q 353 981 353 1791 
Q 353 2603 747 3093 
Q 1141 3584 1784 3584 
Q 2172 3584 2450 3431 
Q 2728 3278 2906 2969 
L 2906 3500 
L 3481 3500 
L 3481 434 
z
" transform="scale(0.015625)"/>
      <path id="DejaVuSans-6c" d="M 603 4863 
L 1178 4863 
L 1178 0 
L 603 0 
L 603 4863 
z
" transform="scale(0.015625)"/>
      <path id="DejaVuSans-29" d="M 513 4856 
L 1013 4856 
Q 1481 4119 1714 3412 
Q 1947 2706 1947 2009 
Q 1947 1309 1714 600 
Q 1481 -109 1013 -844 
L 513 -844 
Q 928 -128 1133 580 
Q 1338 1288 1338 2009 
Q 1338 2731 1133 3434 
Q 928 4138 513 4856 
z
" transform="scale(0.015625)"/>
     </defs>
     <use xlink:href="#DejaVuSans-49"/>
     <use xlink:href="#DejaVuSans-6e" x="29.492188"/>
     <use xlink:href="#DejaVuSans-70" x="92.871094"/>
     <use xlink:href="#DejaVuSans-75" x="156.347656"/>
     <use xlink:href="#DejaVuSans-74" x="219.726562"/>
     <use xlink:href="#DejaVuSans-20" x="258.935547"/>
     <use xlink:href="#DejaVuSans-41" x="290.722656"/>
     <use xlink:href="#DejaVuSans-72" x="359.130859"/>
     <use xlink:href="#DejaVuSans-72" x="398.494141"/>
     <use xlink:href="#DejaVuSans-61" x="439.607422"/>
     <use xlink:href="#DejaVuSans-79" x="500.886719"/>
     <use xlink:href="#DejaVuSans-20" x="560.066406"/>
     <use xlink:href="#DejaVuSans-28" x="591.853516"/>
     <use xlink:href="#DejaVuSans-53" x="630.867188"/>
     <use xlink:href="#DejaVuSans-61" x="694.34375"/>
     <use xlink:href="#DejaVuSans-77" x="755.623047"/>
     <use xlink:href="#DejaVuSans-74" x="837.410156"/>
     <use xlink:href="#DejaVuSans-6f" x="876.619141"/>
     <use xlink:href="#DejaVuSans-6f" x="937.800781"/>
     <use xlink:href="#DejaVuSans-74" x="998.982422"/>
     <use xlink:href="#DejaVuSans-68" x="1038.191406"/>
     <use xlink:href="#DejaVuSans-20" x="1101.570312"/>
     <use xlink:href="#DejaVuSans-53" x="1133.357422"/>
     <use xlink:href="#DejaVuSans-69" x="1196.833984"/>
     <use xlink:href="#DejaVuSans-67" x="1224.617188"/>
     <use xlink:href="#DejaVuSans-6e" x="1288.09375"/>
     <use xlink:href="#DejaVuSans-61" x="1351.472656"/>
     <use xlink:href="#DejaVuSans-6c" x="1412.751953"/>
     <use xlink:href="#DejaVuSans-29" x="1440.535156"/>
    </g>
   </g>
  </g>
  <g id="axes_2">
   <g id="patch_7">
    <path d="M 42.01 311.72 
L 637.2 311.72 
L 637.2 191.28 
L 42.01 191.28 
z
" style="fill: #ffffff"/>
   </g>
   <g id="matplotlib.axis_3">
    <g id="xtick_9">
     <g id="line2d_15">
      <g>
       <use xlink:href="#md8a3aae5c9" x="42.01" y="311.72" style="stroke: #000000; stroke-width: 0.8"/>
      </g>
     </g>
     <g id="text_15">
      <!-- 0 -->
      <g transform="translate(38.82875 326.318437) scale(0.1 -0.1)">
       <use xlink:href="#DejaVuSans-30"/>
      </g>
     </g>
    </g>
    <g id="xtick_10">
     <g id="line2d_16">
      <g>
       <use xlink:href="#md8a3aae5c9" x="116.782613" y="311.72" style="stroke: #000000; stroke-width: 0.8"/>
      </g>
     </g>
     <g id="text_16">
      <!-- 25 -->
      <g transform="translate(110.420113 326.318437) scale(0.1 -0.1)">
       <use xlink:href="#DejaVuSans-32"/>
       <use xlink:href="#DejaVuSans-35" x="63.623047"/>
      </g>
     </g>
    </g>
    <g id="xtick_11">
     <g id="line2d_17">
      <g>
       <use xlink:href="#md8a3aae5c9" x="191.555226" y="311.72" style="stroke: #000000; stroke-width: 0.8"/>
      </g>
     </g>
     <g id="text_17">
      <!-- 50 -->
      <g transform="translate(185.192726 326.318437) scale(0.1 -0.1)">
       <use xlink:href="#DejaVuSans-35"/>
       <use xlink:href="#DejaVuSans-30" x="63.623047"/>
      </g>
     </g>
    </g>
    <g id="xtick_12">
     <g id="line2d_18">
      <g>
       <use xlink:href="#md8a3aae5c9" x="266.327839" y="311.72" style="stroke: #000000; stroke-width: 0.8"/>
      </g>
     </g>
     <g id="text_18">
      <!-- 75 -->
      <g transform="translate(259.965339 326.318437) scale(0.1 -0.1)">
       <use xlink:href="#DejaVuSans-37"/>
       <use xlink:href="#DejaVuSans-35" x="63.623047"/>
      </g>
     </g>
    </g>
    <g id="xtick_13">
     <g id="line2d_19">
      <g>
       <use xlink:href="#md8a3aae5c9" x="341.100452" y="311.72" style="stroke: #000000; stroke-width: 0.8"/>
      </g>
     </g>
     <g id="text_19">
      <!-- 100 -->
      <g transform="translate(331.556702 326.318437) scale(0.1 -0.1)">
       <use xlink:href="#DejaVuSans-31"/>
       <use xlink:href="#DejaVuSans-30" x="63.623047"/>
       <use xlink:href="#DejaVuSans-30" x="127.246094"/>
      </g>
     </g>
    </g>
    <g id="xtick_14">
     <g id="line2d_20">
      <g>
       <use xlink:href="#md8a3aae5c9" x="415.873065" y="311.72" style="stroke: #000000; stroke-width: 0.8"/>
      </g>
     </g>
     <g id="text_20">
      <!-- 125 -->
      <g transform="translate(406.329315 326.318437) scale(0.1 -0.1)">
       <use xlink:href="#DejaVuSans-31"/>
       <use xlink:href="#DejaVuSans-32" x="63.623047"/>
       <use xlink:href="#DejaVuSans-35" x="127.246094"/>
      </g>
     </g>
    </g>
    <g id="xtick_15">
     <g id="line2d_21">
      <g>
       <use xlink:href="#md8a3aae5c9" x="490.645678" y="311.72" style="stroke: #000000; stroke-width: 0.8"/>
      </g>
     </g>
     <g id="text_21">
      <!-- 150 -->
      <g transform="translate(481.101928 326.318437) scale(0.1 -0.1)">
       <use xlink:href="#DejaVuSans-31"/>
       <use xlink:href="#DejaVuSans-35" x="63.623047"/>
       <use xlink:href="#DejaVuSans-30" x="127.246094"/>
      </g>
     </g>
    </g>
    <g id="xtick_16">
     <g id="line2d_22">
      <g>
       <use xlink:href="#md8a3aae5c9" x="565.418291" y="311.72" style="stroke: #000000; stroke-width: 0.8"/>
      </g>
     </g>
     <g id="text_22">
      <!-- 175 -->
      <g transform="translate(555.874541 326.318437) scale(0.1 -0.1)">
       <use xlink:href="#DejaVuSans-31"/>
       <use xlink:href="#DejaVuSans-37" x="63.623047"/>
       <use xlink:href="#DejaVuSans-35" x="127.246094"/>
      </g>
     </g>
    </g>
   </g>
   <g id="matplotlib.axis_4">
    <g id="ytick_6">
     <g id="line2d_23">
      <g>
       <use xlink:href="#mbc15a63780" x="42.01" y="306.245455" style="stroke: #000000; stroke-width: 0.8"/>
      </g>
     </g>
     <g id="text_23">
      <!-- 0.000 -->
      <g transform="translate(6.381875 310.044673) scale(0.1 -0.1)">
       <use xlink:href="#DejaVuSans-30"/>
       <use xlink:href="#DejaVuSans-2e" x="63.623047"/>
       <use xlink:href="#DejaVuSans-30" x="95.410156"/>
       <use xlink:href="#DejaVuSans-30" x="159.033203"/>
       <use xlink:href="#DejaVuSans-30" x="222.65625"/>
      </g>
     </g>
    </g>
    <g id="ytick_7">
     <g id="line2d_24">
      <g>
       <use xlink:href="#mbc15a63780" x="42.01" y="285.661479" style="stroke: #000000; stroke-width: 0.8"/>
      </g>
     </g>
     <g id="text_24">
      <!-- 0.025 -->
      <g transform="translate(6.381875 289.460698) scale(0.1 -0.1)">
       <use xlink:href="#DejaVuSans-30"/>
       <use xlink:href="#DejaVuSans-2e" x="63.623047"/>
       <use xlink:href="#DejaVuSans-30" x="95.410156"/>
       <use xlink:href="#DejaVuSans-32" x="159.033203"/>
       <use xlink:href="#DejaVuSans-35" x="222.65625"/>
      </g>
     </g>
    </g>
    <g id="ytick_8">
     <g id="line2d_25">
      <g>
       <use xlink:href="#mbc15a63780" x="42.01" y="265.077503" style="stroke: #000000; stroke-width: 0.8"/>
      </g>
     </g>
     <g id="text_25">
      <!-- 0.050 -->
      <g transform="translate(6.381875 268.876722) scale(0.1 -0.1)">
       <use xlink:href="#DejaVuSans-30"/>
       <use xlink:href="#DejaVuSans-2e" x="63.623047"/>
       <use xlink:href="#DejaVuSans-30" x="95.410156"/>
       <use xlink:href="#DejaVuSans-35" x="159.033203"/>
       <use xlink:href="#DejaVuSans-30" x="222.65625"/>
      </g>
     </g>
    </g>
    <g id="ytick_9">
     <g id="line2d_26">
      <g>
       <use xlink:href="#mbc15a63780" x="42.01" y="244.493528" style="stroke: #000000; stroke-width: 0.8"/>
      </g>
     </g>
     <g id="text_26">
      <!-- 0.075 -->
      <g transform="translate(6.381875 248.292747) scale(0.1 -0.1)">
       <use xlink:href="#DejaVuSans-30"/>
       <use xlink:href="#DejaVuSans-2e" x="63.623047"/>
       <use xlink:href="#DejaVuSans-30" x="95.410156"/>
       <use xlink:href="#DejaVuSans-37" x="159.033203"/>
       <use xlink:href="#DejaVuSans-35" x="222.65625"/>
      </g>
     </g>
    </g>
    <g id="ytick_10">
     <g id="line2d_27">
      <g>
       <use xlink:href="#mbc15a63780" x="42.01" y="223.909552" style="stroke: #000000; stroke-width: 0.8"/>
      </g>
     </g>
     <g id="text_27">
      <!-- 0.100 -->
      <g transform="translate(6.381875 227.708771) scale(0.1 -0.1)">
       <use xlink:href="#DejaVuSans-30"/>
       <use xlink:href="#DejaVuSans-2e" x="63.623047"/>
       <use xlink:href="#DejaVuSans-31" x="95.410156"/>
       <use xlink:href="#DejaVuSans-30" x="159.033203"/>
       <use xlink:href="#DejaVuSans-30" x="222.65625"/>
      </g>
     </g>
    </g>
    <g id="ytick_11">
     <g id="line2d_28">
      <g>
       <use xlink:href="#mbc15a63780" x="42.01" y="203.325577" style="stroke: #000000; stroke-width: 0.8"/>
      </g>
     </g>
     <g id="text_28">
      <!-- 0.125 -->
      <g transform="translate(6.381875 207.124796) scale(0.1 -0.1)">
       <use xlink:href="#DejaVuSans-30"/>
       <use xlink:href="#DejaVuSans-2e" x="63.623047"/>
       <use xlink:href="#DejaVuSans-31" x="95.410156"/>
       <use xlink:href="#DejaVuSans-32" x="159.033203"/>
       <use xlink:href="#DejaVuSans-35" x="222.65625"/>
      </g>
     </g>
    </g>
   </g>
   <g id="LineCollection_1">
    <path d="M 272.309648 306.245455 
L 272.309648 306.245443 
" clip-path="url(#p7933ada8cd)" style="fill: none; stroke: #ff7f0e; stroke-width: 1.5"/>
    <path d="M 275.300553 306.245455 
L 275.300553 306.245382 
" clip-path="url(#p7933ada8cd)" style="fill: none; stroke: #ff7f0e; stroke-width: 1.5"/>
    <path d="M 278.291457 306.245455 
L 278.291457 306.245047 
" clip-path="url(#p7933ada8cd)" style="fill: none; stroke: #ff7f0e; stroke-width: 1.5"/>
    <path d="M 281.282362 306.245455 
L 281.282362 306.243411 
" clip-path="url(#p7933ada8cd)" style="fill: none; stroke: #ff7f0e; stroke-width: 1.5"/>
    <path d="M 284.273266 306.245455 
L 284.273266 306.236296 
" clip-path="url(#p7933ada8cd)" style="fill: none; stroke: #ff7f0e; stroke-width: 1.5"/>
    <path d="M 287.264171 306.245455 
L 287.264171 306.208724 
" clip-path="url(#p7933ada8cd)" style="fill: none; stroke: #ff7f0e; stroke-width: 1.5"/>
    <path d="M 290.255075 306.245455 
L 290.255075 306.113643 
" clip-path="url(#p7933ada8cd)" style="fill: none; stroke: #ff7f0e; stroke-width: 1.5"/>
    <path d="M 293.24598 306.245455 
L 293.24598 305.822171 
" clip-path="url(#p7933ada8cd)" style="fill: none; stroke: #ff7f0e; stroke-width: 1.5"/>
    <path d="M 296.236884 306.245455 
L 296.236884 305.02912 
" clip-path="url(#p7933ada8cd)" style="fill: none; stroke: #ff7f0e; stroke-width: 1.5"/>
    <path d="M 299.227789 306.245455 
L 299.227789 303.117792 
" clip-path="url(#p7933ada8cd)" style="fill: none; stroke: #ff7f0e; stroke-width: 1.5"/>
    <path d="M 302.218693 306.245455 
L 302.218693 299.048778 
" clip-path="url(#p7933ada8cd)" style="fill: none; stroke: #ff7f0e; stroke-width: 1.5"/>
    <path d="M 305.209598 306.245455 
L 305.209598 291.427471 
" clip-path="url(#p7933ada8cd)" style="fill: none; stroke: #ff7f0e; stroke-width: 1.5"/>
    <path d="M 308.200503 306.245455 
L 308.200503 278.943655 
" clip-path="url(#p7933ada8cd)" style="fill: none; stroke: #ff7f0e; stroke-width: 1.5"/>
    <path d="M 311.191407 306.245455 
L 311.191407 261.232396 
" clip-path="url(#p7933ada8cd)" style="fill: none; stroke: #ff7f0e; stroke-width: 1.5"/>
    <path d="M 314.182312 306.245455 
L 314.182312 239.835861 
" clip-path="url(#p7933ada8cd)" style="fill: none; stroke: #ff7f0e; stroke-width: 1.5"/>
    <path d="M 317.173216 306.245455 
L 317.173216 218.571988 
" clip-path="url(#p7933ada8cd)" style="fill: none; stroke: #ff7f0e; stroke-width: 1.5"/>
    <path d="M 320.164121 306.245455 
L 320.164121 202.671492 
" clip-path="url(#p7933ada8cd)" style="fill: none; stroke: #ff7f0e; stroke-width: 1.5"/>
    <path d="M 323.155025 306.245455 
L 323.155025 196.754545 
" clip-path="url(#p7933ada8cd)" style="fill: none; stroke: #ff7f0e; stroke-width: 1.5"/>
    <path d="M 326.14593 306.245455 
L 326.14593 202.671492 
" clip-path="url(#p7933ada8cd)" style="fill: none; stroke: #ff7f0e; stroke-width: 1.5"/>
    <path d="M 329.136834 306.245455 
L 329.136834 218.571988 
" clip-path="url(#p7933ada8cd)" style="fill: none; stroke: #ff7f0e; stroke-width: 1.5"/>
    <path d="M 332.127739 306.245455 
L 332.127739 239.835861 
" clip-path="url(#p7933ada8cd)" style="fill: none; stroke: #ff7f0e; stroke-width: 1.5"/>
    <path d="M 335.118643 306.245455 
L 335.118643 261.232396 
" clip-path="url(#p7933ada8cd)" style="fill: none; stroke: #ff7f0e; stroke-width: 1.5"/>
    <path d="M 338.109548 306.245455 
L 338.109548 278.943655 
" clip-path="url(#p7933ada8cd)" style="fill: none; stroke: #ff7f0e; stroke-width: 1.5"/>
    <path d="M 341.100452 306.245455 
L 341.100452 291.427471 
" clip-path="url(#p7933ada8cd)" style="fill: none; stroke: #ff7f0e; stroke-width: 1.5"/>
    <path d="M 344.091357 306.245455 
L 344.091357 299.048778 
" clip-path="url(#p7933ada8cd)" style="fill: none; stroke: #ff7f0e; stroke-width: 1.5"/>
    <path d="M 347.082261 306.245455 
L 347.082261 303.117792 
" clip-path="url(#p7933ada8cd)" style="fill: none; stroke: #ff7f0e; stroke-width: 1.5"/>
    <path d="M 350.073166 306.245455 
L 350.073166 305.02912 
" clip-path="url(#p7933ada8cd)" style="fill: none; stroke: #ff7f0e; stroke-width: 1.5"/>
    <path d="M 353.06407 306.245455 
L 353.06407 305.822171 
" clip-path="url(#p7933ada8cd)" style="fill: none; stroke: #ff7f0e; stroke-width: 1.5"/>
    <path d="M 356.054975 306.245455 
L 356.054975 306.113643 
" clip-path="url(#p7933ada8cd)" style="fill: none; stroke: #ff7f0e; stroke-width: 1.5"/>
    <path d="M 359.045879 306.245455 
L 359.045879 306.208724 
" clip-path="url(#p7933ada8cd)" style="fill: none; stroke: #ff7f0e; stroke-width: 1.5"/>
    <path d="M 362.036784 306.245455 
L 362.036784 306.236296 
" clip-path="url(#p7933ada8cd)" style="fill: none; stroke: #ff7f0e; stroke-width: 1.5"/>
    <path d="M 365.027688 306.245455 
L 365.027688 306.243411 
" clip-path="url(#p7933ada8cd)" style="fill: none; stroke: #ff7f0e; stroke-width: 1.5"/>
    <path d="M 368.018593 306.245455 
L 368.018593 306.245047 
" clip-path="url(#p7933ada8cd)" style="fill: none; stroke: #ff7f0e; stroke-width: 1.5"/>
    <path d="M 371.009497 306.245455 
L 371.009497 306.245382 
" clip-path="url(#p7933ada8cd)" style="fill: none; stroke: #ff7f0e; stroke-width: 1.5"/>
    <path d="M 374.000402 306.245455 
L 374.000402 306.245443 
" clip-path="url(#p7933ada8cd)" style="fill: none; stroke: #ff7f0e; stroke-width: 1.5"/>
   </g>
   <g id="line2d_29">
    <defs>
     <path id="m654176b24b" d="M 0 3 
C 0.795609 3 1.55874 2.683901 2.12132 2.12132 
C 2.683901 1.55874 3 0.795609 3 0 
C 3 -0.795609 2.683901 -1.55874 2.12132 -2.12132 
C 1.55874 -2.683901 0.795609 -3 0 -3 
C -0.795609 -3 -1.55874 -2.683901 -2.12132 -2.12132 
C -2.683901 -1.55874 -3 -0.795609 -3 0 
C -3 0.795609 -2.683901 1.55874 -2.12132 2.12132 
C -1.55874 2.683901 -0.795609 3 0 3 
z
" style="stroke: #ff7f0e"/>
    </defs>
    <g clip-path="url(#p7933ada8cd)">
     <use xlink:href="#m654176b24b" x="272.309648" y="306.245443" style="fill: #ff7f0e; stroke: #ff7f0e"/>
     <use xlink:href="#m654176b24b" x="275.300553" y="306.245382" style="fill: #ff7f0e; stroke: #ff7f0e"/>
     <use xlink:href="#m654176b24b" x="278.291457" y="306.245047" style="fill: #ff7f0e; stroke: #ff7f0e"/>
     <use xlink:href="#m654176b24b" x="281.282362" y="306.243411" style="fill: #ff7f0e; stroke: #ff7f0e"/>
     <use xlink:href="#m654176b24b" x="284.273266" y="306.236296" style="fill: #ff7f0e; stroke: #ff7f0e"/>
     <use xlink:href="#m654176b24b" x="287.264171" y="306.208724" style="fill: #ff7f0e; stroke: #ff7f0e"/>
     <use xlink:href="#m654176b24b" x="290.255075" y="306.113643" style="fill: #ff7f0e; stroke: #ff7f0e"/>
     <use xlink:href="#m654176b24b" x="293.24598" y="305.822171" style="fill: #ff7f0e; stroke: #ff7f0e"/>
     <use xlink:href="#m654176b24b" x="296.236884" y="305.02912" style="fill: #ff7f0e; stroke: #ff7f0e"/>
     <use xlink:href="#m654176b24b" x="299.227789" y="303.117792" style="fill: #ff7f0e; stroke: #ff7f0e"/>
     <use xlink:href="#m654176b24b" x="302.218693" y="299.048778" style="fill: #ff7f0e; stroke: #ff7f0e"/>
     <use xlink:href="#m654176b24b" x="305.209598" y="291.427471" style="fill: #ff7f0e; stroke: #ff7f0e"/>
     <use xlink:href="#m654176b24b" x="308.200503" y="278.943655" style="fill: #ff7f0e; stroke: #ff7f0e"/>
     <use xlink:href="#m654176b24b" x="311.191407" y="261.232396" style="fill: #ff7f0e; stroke: #ff7f0e"/>
     <use xlink:href="#m654176b24b" x="314.182312" y="239.835861" style="fill: #ff7f0e; stroke: #ff7f0e"/>
     <use xlink:href="#m654176b24b" x="317.173216" y="218.571988" style="fill: #ff7f0e; stroke: #ff7f0e"/>
     <use xlink:href="#m654176b24b" x="320.164121" y="202.671492" style="fill: #ff7f0e; stroke: #ff7f0e"/>
     <use xlink:href="#m654176b24b" x="323.155025" y="196.754545" style="fill: #ff7f0e; stroke: #ff7f0e"/>
     <use xlink:href="#m654176b24b" x="326.14593" y="202.671492" style="fill: #ff7f0e; stroke: #ff7f0e"/>
     <use xlink:href="#m654176b24b" x="329.136834" y="218.571988" style="fill: #ff7f0e; stroke: #ff7f0e"/>
     <use xlink:href="#m654176b24b" x="332.127739" y="239.835861" style="fill: #ff7f0e; stroke: #ff7f0e"/>
     <use xlink:href="#m654176b24b" x="335.118643" y="261.232396" style="fill: #ff7f0e; stroke: #ff7f0e"/>
     <use xlink:href="#m654176b24b" x="338.109548" y="278.943655" style="fill: #ff7f0e; stroke: #ff7f0e"/>
     <use xlink:href="#m654176b24b" x="341.100452" y="291.427471" style="fill: #ff7f0e; stroke: #ff7f0e"/>
     <use xlink:href="#m654176b24b" x="344.091357" y="299.048778" style="fill: #ff7f0e; stroke: #ff7f0e"/>
     <use xlink:href="#m654176b24b" x="347.082261" y="303.117792" style="fill: #ff7f0e; stroke: #ff7f0e"/>
     <use xlink:href="#m654176b24b" x="350.073166" y="305.02912" style="fill: #ff7f0e; stroke: #ff7f0e"/>
     <use xlink:href="#m654176b24b" x="353.06407" y="305.822171" style="fill: #ff7f0e; stroke: #ff7f0e"/>
     <use xlink:href="#m654176b24b" x="356.054975" y="306.113643" style="fill: #ff7f0e; stroke: #ff7f0e"/>
     <use xlink:href="#m654176b24b" x="359.045879" y="306.208724" style="fill: #ff7f0e; stroke: #ff7f0e"/>
     <use xlink:href="#m654176b24b" x="362.036784" y="306.236296" style="fill: #ff7f0e; stroke: #ff7f0e"/>
     <use xlink:href="#m654176b24b" x="365.027688" y="306.243411" style="fill: #ff7f0e; stroke: #ff7f0e"/>
     <use xlink:href="#m654176b24b" x="368.018593" y="306.245047" style="fill: #ff7f0e; stroke: #ff7f0e"/>
     <use xlink:href="#m654176b24b" x="371.009497" y="306.245382" style="fill: #ff7f0e; stroke: #ff7f0e"/>
     <use xlink:href="#m654176b24b" x="374.000402" y="306.245443" style="fill: #ff7f0e; stroke: #ff7f0e"/>
    </g>
   </g>
   <g id="line2d_30"/>
   <g id="patch_8">
    <path d="M 42.01 311.72 
L 42.01 191.28 
" style="fill: none; stroke: #000000; stroke-width: 0.8; stroke-linejoin: miter; stroke-linecap: square"/>
   </g>
   <g id="patch_9">
    <path d="M 637.2 311.72 
L 637.2 191.28 
" style="fill: none; stroke: #000000; stroke-width: 0.8; stroke-linejoin: miter; stroke-linecap: square"/>
   </g>
   <g id="patch_10">
    <path d="M 42.01 311.72 
L 637.2 311.72 
" style="fill: none; stroke: #000000; stroke-width: 0.8; stroke-linejoin: miter; stroke-linecap: square"/>
   </g>
   <g id="patch_11">
    <path d="M 42.01 191.28 
L 637.2 191.28 
" style="fill: none; stroke: #000000; stroke-width: 0.8; stroke-linejoin: miter; stroke-linecap: square"/>
   </g>
   <g id="text_29">
    <!-- Gaussian Kernel (Center at Step 77) -->
    <g transform="translate(231.4925 185.28) scale(0.12 -0.12)">
     <defs>
      <path id="DejaVuSans-47" d="M 3809 666 
L 3809 1919 
L 2778 1919 
L 2778 2438 
L 4434 2438 
L 4434 434 
Q 4069 175 3628 42 
Q 3188 -91 2688 -91 
Q 1594 -91 976 548 
Q 359 1188 359 2328 
Q 359 3472 976 4111 
Q 1594 4750 2688 4750 
Q 3144 4750 3555 4637 
Q 3966 4525 4313 4306 
L 4313 3634 
Q 3963 3931 3569 4081 
Q 3175 4231 2741 4231 
Q 1884 4231 1454 3753 
Q 1025 3275 1025 2328 
Q 1025 1384 1454 906 
Q 1884 428 2741 428 
Q 3075 428 3337 486 
Q 3600 544 3809 666 
z
" transform="scale(0.015625)"/>
      <path id="DejaVuSans-73" d="M 2834 3397 
L 2834 2853 
Q 2591 2978 2328 3040 
Q 2066 3103 1784 3103 
Q 1356 3103 1142 2972 
Q 928 2841 928 2578 
Q 928 2378 1081 2264 
Q 1234 2150 1697 2047 
L 1894 2003 
Q 2506 1872 2764 1633 
Q 3022 1394 3022 966 
Q 3022 478 2636 193 
Q 2250 -91 1575 -91 
Q 1294 -91 989 -36 
Q 684 19 347 128 
L 347 722 
Q 666 556 975 473 
Q 1284 391 1588 391 
Q 1994 391 2212 530 
Q 2431 669 2431 922 
Q 2431 1156 2273 1281 
Q 2116 1406 1581 1522 
L 1381 1569 
Q 847 1681 609 1914 
Q 372 2147 372 2553 
Q 372 3047 722 3315 
Q 1072 3584 1716 3584 
Q 2034 3584 2315 3537 
Q 2597 3491 2834 3397 
z
" transform="scale(0.015625)"/>
      <path id="DejaVuSans-4b" d="M 628 4666 
L 1259 4666 
L 1259 2694 
L 3353 4666 
L 4166 4666 
L 1850 2491 
L 4331 0 
L 3500 0 
L 1259 2247 
L 1259 0 
L 628 0 
L 628 4666 
z
" transform="scale(0.015625)"/>
      <path id="DejaVuSans-65" d="M 3597 1894 
L 3597 1613 
L 953 1613 
Q 991 1019 1311 708 
Q 1631 397 2203 397 
Q 2534 397 2845 478 
Q 3156 559 3463 722 
L 3463 178 
Q 3153 47 2828 -22 
Q 2503 -91 2169 -91 
Q 1331 -91 842 396 
Q 353 884 353 1716 
Q 353 2575 817 3079 
Q 1281 3584 2069 3584 
Q 2775 3584 3186 3129 
Q 3597 2675 3597 1894 
z
M 3022 2063 
Q 3016 2534 2758 2815 
Q 2500 3097 2075 3097 
Q 1594 3097 1305 2825 
Q 1016 2553 972 2059 
L 3022 2063 
z
" transform="scale(0.015625)"/>
      <path id="DejaVuSans-43" d="M 4122 4306 
L 4122 3641 
Q 3803 3938 3442 4084 
Q 3081 4231 2675 4231 
Q 1875 4231 1450 3742 
Q 1025 3253 1025 2328 
Q 1025 1406 1450 917 
Q 1875 428 2675 428 
Q 3081 428 3442 575 
Q 3803 722 4122 1019 
L 4122 359 
Q 3791 134 3420 21 
Q 3050 -91 2638 -91 
Q 1578 -91 968 557 
Q 359 1206 359 2328 
Q 359 3453 968 4101 
Q 1578 4750 2638 4750 
Q 3056 4750 3426 4639 
Q 3797 4528 4122 4306 
z
" transform="scale(0.015625)"/>
     </defs>
     <use xlink:href="#DejaVuSans-47"/>
     <use xlink:href="#DejaVuSans-61" x="77.490234"/>
     <use xlink:href="#DejaVuSans-75" x="138.769531"/>
     <use xlink:href="#DejaVuSans-73" x="202.148438"/>
     <use xlink:href="#DejaVuSans-73" x="254.248047"/>
     <use xlink:href="#DejaVuSans-69" x="306.347656"/>
     <use xlink:href="#DejaVuSans-61" x="334.130859"/>
     <use xlink:href="#DejaVuSans-6e" x="395.410156"/>
     <use xlink:href="#DejaVuSans-20" x="458.789062"/>
     <use xlink:href="#DejaVuSans-4b" x="490.576172"/>
     <use xlink:href="#DejaVuSans-65" x="551.152344"/>
     <use xlink:href="#DejaVuSans-72" x="612.675781"/>
     <use xlink:href="#DejaVuSans-6e" x="652.039062"/>
     <use xlink:href="#DejaVuSans-65" x="715.417969"/>
     <use xlink:href="#DejaVuSans-6c" x="776.941406"/>
     <use xlink:href="#DejaVuSans-20" x="804.724609"/>
     <use xlink:href="#DejaVuSans-28" x="836.511719"/>
     <use xlink:href="#DejaVuSans-43" x="875.525391"/>
     <use xlink:href="#DejaVuSans-65" x="945.349609"/>
     <use xlink:href="#DejaVuSans-6e" x="1006.873047"/>
     <use xlink:href="#DejaVuSans-74" x="1070.251953"/>
     <use xlink:href="#DejaVuSans-65" x="1109.460938"/>
     <use xlink:href="#DejaVuSans-72" x="1170.984375"/>
     <use xlink:href="#DejaVuSans-20" x="1212.097656"/>
     <use xlink:href="#DejaVuSans-61" x="1243.884766"/>
     <use xlink:href="#DejaVuSans-74" x="1305.164062"/>
     <use xlink:href="#DejaVuSans-20" x="1344.373047"/>
     <use xlink:href="#DejaVuSans-53" x="1376.160156"/>
     <use xlink:href="#DejaVuSans-74" x="1439.636719"/>
     <use xlink:href="#DejaVuSans-65" x="1478.845703"/>
     <use xlink:href="#DejaVuSans-70" x="1540.369141"/>
     <use xlink:href="#DejaVuSans-20" x="1603.845703"/>
     <use xlink:href="#DejaVuSans-37" x="1635.632812"/>
     <use xlink:href="#DejaVuSans-37" x="1699.255859"/>
     <use xlink:href="#DejaVuSans-29" x="1762.878906"/>
    </g>
   </g>
  </g>
  <g id="axes_3">
   <g id="patch_12">
    <path d="M 42.01 476.12 
L 637.2 476.12 
L 637.2 355.68 
L 42.01 355.68 
z
" style="fill: #ffffff"/>
   </g>
   <g id="matplotlib.axis_5">
    <g id="xtick_17">
     <g id="line2d_31">
      <g>
       <use xlink:href="#md8a3aae5c9" x="42.01" y="476.12" style="stroke: #000000; stroke-width: 0.8"/>
      </g>
     </g>
     <g id="text_30">
      <!-- 0 -->
      <g transform="translate(38.82875 490.718437) scale(0.1 -0.1)">
       <use xlink:href="#DejaVuSans-30"/>
      </g>
     </g>
    </g>
    <g id="xtick_18">
     <g id="line2d_32">
      <g>
       <use xlink:href="#md8a3aae5c9" x="114.154242" y="476.12" style="stroke: #000000; stroke-width: 0.8"/>
      </g>
     </g>
     <g id="text_31">
      <!-- 20 -->
      <g transform="translate(107.791742 490.718437) scale(0.1 -0.1)">
       <use xlink:href="#DejaVuSans-32"/>
       <use xlink:href="#DejaVuSans-30" x="63.623047"/>
      </g>
     </g>
    </g>
    <g id="xtick_19">
     <g id="line2d_33">
      <g>
       <use xlink:href="#md8a3aae5c9" x="186.298485" y="476.12" style="stroke: #000000; stroke-width: 0.8"/>
      </g>
     </g>
     <g id="text_32">
      <!-- 40 -->
      <g transform="translate(179.935985 490.718437) scale(0.1 -0.1)">
       <defs>
        <path id="DejaVuSans-34" d="M 2419 4116 
L 825 1625 
L 2419 1625 
L 2419 4116 
z
M 2253 4666 
L 3047 4666 
L 3047 1625 
L 3713 1625 
L 3713 1100 
L 3047 1100 
L 3047 0 
L 2419 0 
L 2419 1100 
L 313 1100 
L 313 1709 
L 2253 4666 
z
" transform="scale(0.015625)"/>
       </defs>
       <use xlink:href="#DejaVuSans-34"/>
       <use xlink:href="#DejaVuSans-30" x="63.623047"/>
      </g>
     </g>
    </g>
    <g id="xtick_20">
     <g id="line2d_34">
      <g>
       <use xlink:href="#md8a3aae5c9" x="258.442727" y="476.12" style="stroke: #000000; stroke-width: 0.8"/>
      </g>
     </g>
     <g id="text_33">
      <!-- 60 -->
      <g transform="translate(252.080227 490.718437) scale(0.1 -0.1)">
       <defs>
        <path id="DejaVuSans-36" d="M 2113 2584 
Q 1688 2584 1439 2293 
Q 1191 2003 1191 1497 
Q 1191 994 1439 701 
Q 1688 409 2113 409 
Q 2538 409 2786 701 
Q 3034 994 3034 1497 
Q 3034 2003 2786 2293 
Q 2538 2584 2113 2584 
z
M 3366 4563 
L 3366 3988 
Q 3128 4100 2886 4159 
Q 2644 4219 2406 4219 
Q 1781 4219 1451 3797 
Q 1122 3375 1075 2522 
Q 1259 2794 1537 2939 
Q 1816 3084 2150 3084 
Q 2853 3084 3261 2657 
Q 3669 2231 3669 1497 
Q 3669 778 3244 343 
Q 2819 -91 2113 -91 
Q 1303 -91 875 529 
Q 447 1150 447 2328 
Q 447 3434 972 4092 
Q 1497 4750 2381 4750 
Q 2619 4750 2861 4703 
Q 3103 4656 3366 4563 
z
" transform="scale(0.015625)"/>
       </defs>
       <use xlink:href="#DejaVuSans-36"/>
       <use xlink:href="#DejaVuSans-30" x="63.623047"/>
      </g>
     </g>
    </g>
    <g id="xtick_21">
     <g id="line2d_35">
      <g>
       <use xlink:href="#md8a3aae5c9" x="330.58697" y="476.12" style="stroke: #000000; stroke-width: 0.8"/>
      </g>
     </g>
     <g id="text_34">
      <!-- 80 -->
      <g transform="translate(324.22447 490.718437) scale(0.1 -0.1)">
       <defs>
        <path id="DejaVuSans-38" d="M 2034 2216 
Q 1584 2216 1326 1975 
Q 1069 1734 1069 1313 
Q 1069 891 1326 650 
Q 1584 409 2034 409 
Q 2484 409 2743 651 
Q 3003 894 3003 1313 
Q 3003 1734 2745 1975 
Q 2488 2216 2034 2216 
z
M 1403 2484 
Q 997 2584 770 2862 
Q 544 3141 544 3541 
Q 544 4100 942 4425 
Q 1341 4750 2034 4750 
Q 2731 4750 3128 4425 
Q 3525 4100 3525 3541 
Q 3525 3141 3298 2862 
Q 3072 2584 2669 2484 
Q 3125 2378 3379 2068 
Q 3634 1759 3634 1313 
Q 3634 634 3220 271 
Q 2806 -91 2034 -91 
Q 1263 -91 848 271 
Q 434 634 434 1313 
Q 434 1759 690 2068 
Q 947 2378 1403 2484 
z
M 1172 3481 
Q 1172 3119 1398 2916 
Q 1625 2713 2034 2713 
Q 2441 2713 2670 2916 
Q 2900 3119 2900 3481 
Q 2900 3844 2670 4047 
Q 2441 4250 2034 4250 
Q 1625 4250 1398 4047 
Q 1172 3844 1172 3481 
z
" transform="scale(0.015625)"/>
       </defs>
       <use xlink:href="#DejaVuSans-38"/>
       <use xlink:href="#DejaVuSans-30" x="63.623047"/>
      </g>
     </g>
    </g>
    <g id="xtick_22">
     <g id="line2d_36">
      <g>
       <use xlink:href="#md8a3aae5c9" x="402.731212" y="476.12" style="stroke: #000000; stroke-width: 0.8"/>
      </g>
     </g>
     <g id="text_35">
      <!-- 100 -->
      <g transform="translate(393.187462 490.718437) scale(0.1 -0.1)">
       <use xlink:href="#DejaVuSans-31"/>
       <use xlink:href="#DejaVuSans-30" x="63.623047"/>
       <use xlink:href="#DejaVuSans-30" x="127.246094"/>
      </g>
     </g>
    </g>
    <g id="xtick_23">
     <g id="line2d_37">
      <g>
       <use xlink:href="#md8a3aae5c9" x="474.875455" y="476.12" style="stroke: #000000; stroke-width: 0.8"/>
      </g>
     </g>
     <g id="text_36">
      <!-- 120 -->
      <g transform="translate(465.331705 490.718437) scale(0.1 -0.1)">
       <use xlink:href="#DejaVuSans-31"/>
       <use xlink:href="#DejaVuSans-32" x="63.623047"/>
       <use xlink:href="#DejaVuSans-30" x="127.246094"/>
      </g>
     </g>
    </g>
    <g id="xtick_24">
     <g id="line2d_38">
      <g>
       <use xlink:href="#md8a3aae5c9" x="547.019697" y="476.12" style="stroke: #000000; stroke-width: 0.8"/>
      </g>
     </g>
     <g id="text_37">
      <!-- 140 -->
      <g transform="translate(537.475947 490.718437) scale(0.1 -0.1)">
       <use xlink:href="#DejaVuSans-31"/>
       <use xlink:href="#DejaVuSans-34" x="63.623047"/>
       <use xlink:href="#DejaVuSans-30" x="127.246094"/>
      </g>
     </g>
    </g>
    <g id="xtick_25">
     <g id="line2d_39">
      <g>
       <use xlink:href="#md8a3aae5c9" x="619.163939" y="476.12" style="stroke: #000000; stroke-width: 0.8"/>
      </g>
     </g>
     <g id="text_38">
      <!-- 160 -->
      <g transform="translate(609.620189 490.718437) scale(0.1 -0.1)">
       <use xlink:href="#DejaVuSans-31"/>
       <use xlink:href="#DejaVuSans-36" x="63.623047"/>
       <use xlink:href="#DejaVuSans-30" x="127.246094"/>
      </g>
     </g>
    </g>
   </g>
   <g id="matplotlib.axis_6">
    <g id="ytick_12">
     <g id="line2d_40">
      <g>
       <use xlink:href="#mbc15a63780" x="42.01" y="453.443757" style="stroke: #000000; stroke-width: 0.8"/>
      </g>
     </g>
     <g id="text_39">
      <!-- −0.5 -->
      <g transform="translate(10.727187 457.242976) scale(0.1 -0.1)">
       <use xlink:href="#DejaVuSans-2212"/>
       <use xlink:href="#DejaVuSans-30" x="83.789062"/>
       <use xlink:href="#DejaVuSans-2e" x="147.412109"/>
       <use xlink:href="#DejaVuSans-35" x="179.199219"/>
      </g>
     </g>
    </g>
    <g id="ytick_13">
     <g id="line2d_41">
      <g>
       <use xlink:href="#mbc15a63780" x="42.01" y="415.9" style="stroke: #000000; stroke-width: 0.8"/>
      </g>
     </g>
     <g id="text_40">
      <!-- 0.0 -->
      <g transform="translate(19.106875 419.699219) scale(0.1 -0.1)">
       <use xlink:href="#DejaVuSans-30"/>
       <use xlink:href="#DejaVuSans-2e" x="63.623047"/>
       <use xlink:href="#DejaVuSans-30" x="95.410156"/>
      </g>
     </g>
    </g>
    <g id="ytick_14">
     <g id="line2d_42">
      <g>
       <use xlink:href="#mbc15a63780" x="42.01" y="378.356243" style="stroke: #000000; stroke-width: 0.8"/>
      </g>
     </g>
     <g id="text_41">
      <!-- 0.5 -->
      <g transform="translate(19.106875 382.155462) scale(0.1 -0.1)">
       <use xlink:href="#DejaVuSans-30"/>
       <use xlink:href="#DejaVuSans-2e" x="63.623047"/>
       <use xlink:href="#DejaVuSans-35" x="95.410156"/>
      </g>
     </g>
    </g>
   </g>
   <g id="line2d_43">
    <path d="M 42.01 438.885974 
L 45.617212 435.821177 
L 49.224424 432.756381 
L 52.831636 429.691584 
L 56.438848 426.626788 
L 60.046061 423.561991 
L 63.653273 420.497195 
L 67.260485 417.432398 
L 70.867697 414.367602 
L 74.474909 411.302805 
L 78.082121 408.238009 
L 81.689333 405.173212 
L 85.296545 402.108416 
L 88.903758 399.043619 
L 92.51097 395.978823 
L 96.118182 392.914026 
L 99.725394 389.849232 
L 103.332606 386.784449 
L 106.939818 383.719728 
L 110.54703 380.655312 
L 114.154242 377.59222 
L 117.761455 374.53426 
L 121.368667 371.493996 
L 124.975879 368.507979 
L 128.583091 365.669561 
L 132.190303 363.18687 
L 135.797515 361.461487 
L 139.404727 361.154545 
L 143.011939 363.171035 
L 146.619152 368.483864 
L 150.226364 377.778918 
L 153.833576 391.031507 
L 157.440788 407.243424 
L 161.048 424.556576 
L 164.655212 440.768493 
L 168.262424 454.021082 
L 171.869636 463.316136 
L 175.476848 468.628965 
L 179.084061 470.645455 
L 182.691273 470.338513 
L 186.298485 468.61313 
L 189.905697 466.130439 
L 193.512909 463.292021 
L 197.120121 460.306004 
L 200.727333 457.26574 
L 204.334545 454.20778 
L 207.941758 451.144688 
L 211.54897 448.080272 
L 215.156182 445.015551 
L 218.763394 441.950768 
L 222.370606 438.885974 
L 225.977818 435.821177 
L 229.58503 432.756381 
L 233.192242 429.691584 
L 236.799455 426.626788 
L 240.406667 423.561991 
L 244.013879 420.497195 
L 247.621091 417.432398 
L 251.228303 414.367602 
L 254.835515 411.302805 
L 258.442727 408.238009 
L 262.049939 405.173212 
L 265.657152 402.108416 
L 269.264364 399.043619 
L 272.871576 395.978823 
L 276.478788 392.914026 
L 280.086 389.849232 
L 283.693212 386.784449 
L 287.300424 383.719728 
L 290.907636 380.655312 
L 294.514848 377.59222 
L 298.122061 374.53426 
L 301.729273 371.493996 
L 305.336485 368.507979 
L 308.943697 365.669561 
L 312.550909 363.18687 
L 316.158121 361.461487 
L 319.765333 361.154545 
" clip-path="url(#p0cd7a48262)" style="fill: none; stroke: #2ca02c; stroke-width: 1.5; stroke-linecap: square"/>
   </g>
   <g id="patch_13">
    <path d="M 42.01 476.12 
L 42.01 355.68 
" style="fill: none; stroke: #000000; stroke-width: 0.8; stroke-linejoin: miter; stroke-linecap: square"/>
   </g>
   <g id="patch_14">
    <path d="M 637.2 476.12 
L 637.2 355.68 
" style="fill: none; stroke: #000000; stroke-width: 0.8; stroke-linejoin: miter; stroke-linecap: square"/>
   </g>
   <g id="patch_15">
    <path d="M 42.01 476.12 
L 637.2 476.12 
" style="fill: none; stroke: #000000; stroke-width: 0.8; stroke-linejoin: miter; stroke-linecap: square"/>
   </g>
   <g id="patch_16">
    <path d="M 42.01 355.68 
L 637.2 355.68 
" style="fill: none; stroke: #000000; stroke-width: 0.8; stroke-linejoin: miter; stroke-linecap: square"/>
   </g>
   <g id="text_42">
    <!-- Result of Convolution (Partial) -->
    <g transform="translate(250.17875 349.68) scale(0.12 -0.12)">
     <defs>
      <path id="DejaVuSans-52" d="M 2841 2188 
Q 3044 2119 3236 1894 
Q 3428 1669 3622 1275 
L 4263 0 
L 3584 0 
L 2988 1197 
Q 2756 1666 2539 1819 
Q 2322 1972 1947 1972 
L 1259 1972 
L 1259 0 
L 628 0 
L 628 4666 
L 2053 4666 
Q 2853 4666 3247 4331 
Q 3641 3997 3641 3322 
Q 3641 2881 3436 2590 
Q 3231 2300 2841 2188 
z
M 1259 4147 
L 1259 2491 
L 2053 2491 
Q 2509 2491 2742 2702 
Q 2975 2913 2975 3322 
Q 2975 3731 2742 3939 
Q 2509 4147 2053 4147 
L 1259 4147 
z
" transform="scale(0.015625)"/>
      <path id="DejaVuSans-66" d="M 2375 4863 
L 2375 4384 
L 1825 4384 
Q 1516 4384 1395 4259 
Q 1275 4134 1275 3809 
L 1275 3500 
L 2222 3500 
L 2222 3053 
L 1275 3053 
L 1275 0 
L 697 0 
L 697 3053 
L 147 3053 
L 147 3500 
L 697 3500 
L 697 3744 
Q 697 4328 969 4595 
Q 1241 4863 1831 4863 
L 2375 4863 
z
" transform="scale(0.015625)"/>
      <path id="DejaVuSans-76" d="M 191 3500 
L 800 3500 
L 1894 563 
L 2988 3500 
L 3597 3500 
L 2284 0 
L 1503 0 
L 191 3500 
z
" transform="scale(0.015625)"/>
      <path id="DejaVuSans-50" d="M 1259 4147 
L 1259 2394 
L 2053 2394 
Q 2494 2394 2734 2622 
Q 2975 2850 2975 3272 
Q 2975 3691 2734 3919 
Q 2494 4147 2053 4147 
L 1259 4147 
z
M 628 4666 
L 2053 4666 
Q 2838 4666 3239 4311 
Q 3641 3956 3641 3272 
Q 3641 2581 3239 2228 
Q 2838 1875 2053 1875 
L 1259 1875 
L 1259 0 
L 628 0 
L 628 4666 
z
" transform="scale(0.015625)"/>
     </defs>
     <use xlink:href="#DejaVuSans-52"/>
     <use xlink:href="#DejaVuSans-65" x="64.982422"/>
     <use xlink:href="#DejaVuSans-73" x="126.505859"/>
     <use xlink:href="#DejaVuSans-75" x="178.605469"/>
     <use xlink:href="#DejaVuSans-6c" x="241.984375"/>
     <use xlink:href="#DejaVuSans-74" x="269.767578"/>
     <use xlink:href="#DejaVuSans-20" x="308.976562"/>
     <use xlink:href="#DejaVuSans-6f" x="340.763672"/>
     <use xlink:href="#DejaVuSans-66" x="401.945312"/>
     <use xlink:href="#DejaVuSans-20" x="437.150391"/>
     <use xlink:href="#DejaVuSans-43" x="468.9375"/>
     <use xlink:href="#DejaVuSans-6f" x="538.761719"/>
     <use xlink:href="#DejaVuSans-6e" x="599.943359"/>
     <use xlink:href="#DejaVuSans-76" x="663.322266"/>
     <use xlink:href="#DejaVuSans-6f" x="722.501953"/>
     <use xlink:href="#DejaVuSans-6c" x="783.683594"/>
     <use xlink:href="#DejaVuSans-75" x="811.466797"/>
     <use xlink:href="#DejaVuSans-74" x="874.845703"/>
     <use xlink:href="#DejaVuSans-69" x="914.054688"/>
     <use xlink:href="#DejaVuSans-6f" x="941.837891"/>
     <use xlink:href="#DejaVuSans-6e" x="1003.019531"/>
     <use xlink:href="#DejaVuSans-20" x="1066.398438"/>
     <use xlink:href="#DejaVuSans-28" x="1098.185547"/>
     <use xlink:href="#DejaVuSans-50" x="1137.199219"/>
     <use xlink:href="#DejaVuSans-61" x="1193.001953"/>
     <use xlink:href="#DejaVuSans-72" x="1254.28125"/>
     <use xlink:href="#DejaVuSans-74" x="1295.394531"/>
     <use xlink:href="#DejaVuSans-69" x="1334.603516"/>
     <use xlink:href="#DejaVuSans-61" x="1362.386719"/>
     <use xlink:href="#DejaVuSans-6c" x="1423.666016"/>
     <use xlink:href="#DejaVuSans-29" x="1451.449219"/>
    </g>
   </g>
  </g>
 </g>
 <defs>
  <clipPath id="p518249ee3b">
   <rect x="42.01" y="26.88" width="595.19" height="120.44"/>
  </clipPath>
  <clipPath id="p7933ada8cd">
   <rect x="42.01" y="191.28" width="595.19" height="120.44"/>
  </clipPath>
  <clipPath id="p0cd7a48262">
   <rect x="42.01" y="355.68" width="595.19" height="120.44"/>
  </clipPath>
 </defs>
</svg>
